# xmcd
# 
# Track frame offsets:
#     210
#     12867
#     32205
#     46927
#     71837
#     86240
#     100922
#     113050
#     129387
#     144687
#     158340
#     167100
#     180845
# 
# Disc length: 2624
# 
# Revision: 4
# Processed by: cddbd v1.5.2PL0 Copyright (c) Steve Scherf et al.
# Submitted via: BonkEnc v1.0.8
# 
DISCID=a40a3e0d
DTITLE=Tom Waits - The Early Years
DYEAR=1991
DGENRE=Blues
TTITLE0=Goin' Down Slow
TTITLE1=Poncho's Lament
TTITLE2=I'm Your Late Night Evening Prostitute
TTITLE3=Had Me a Girl
TTITLE4=Ice Cream Man
TTITLE5=Rockin' Chair
TTITLE6=Virginia Ave.
TTITLE7=Midnight Lullabye
TTITLE8=When You Ain't Got Nobody
TTITLE9=Little Trip To Heaven
TTITLE10=Frank's Song
TTITLE11=Look's Like Im Up Shit Creek Again
TTITLE12=So Long I'll See Ya
EXTD=YEAR: 1991
EXTT0=
EXTT1=
EXTT2=
EXTT3=
EXTT4=
EXTT5=
EXTT6=
EXTT7=
EXTT8=
EXTT9=
EXTT10=
EXTT11=
EXTT12=
PLAYORDER=
